<?xml version="1.0"?>
<svg width="30" height="30" xmlns="http://www.w3.org/2000/svg" xmlns:svg="http://www.w3.org/2000/svg" xmlns:xlink="http://www.w3.org/1999/xlink">
 <g>
  <title>Layer 1</title>
  <g id="DO_NOT_EDIT_-_BOUNDING_BOX">
   <rect height="30" width="30" fill="none" id="BOUNDING_BOX"/>
  </g>
  <g id="TV">
   <path id="svg_1" fill="#00FF00" opacity="1" d="m28.125,2.751l-26.25,0c-0.482,0 -0.875,0.392 -0.875,0.875l0,17.499c0,0.484 0.393,0.875 0.875,0.875l26.25,0c0.482,0 0.875,-0.391 0.875,-0.875l0,-17.499c0,-0.483 -0.393,-0.875 -0.875,-0.875zm-1.75,16.624l-22.75,0l0,-14.874l22.75,0l0,14.874zm-17.375,5.625l12,0l0,-2l-12,0l0,2z" />
   <path id="border-and-screen-writings-up" fill="#000000" opacity="1" d="m9,27c-0.552,0 -1,-0.447 -1,-1l0,-2l-6.125,0c-1.034,0 -1.875,-0.841 -1.875,-1.875l0,-17.499c0,-1.034 0.841,-1.875 1.875,-1.875l26.25,0c1.034,0 1.875,0.841 1.875,1.875l0,17.499c0,1.034 -0.841,1.875 -1.875,1.875l-6.125,0l0,2c0,0.553 -0.447,1 -1,1l-12,0z" />
   <path id="svg_3" fill="#FF00FF" opacity="1" d="m28.125,3.751l-26.25,0c-0.482,0 -0.875,0.392 -0.875,0.875l0,17.499c0,0.484 0.393,0.875 0.875,0.875l26.25,0c0.482,0 0.875,-0.391 0.875,-0.875l0,-17.499c0,-0.483 -0.393,-0.875 -0.875,-0.875zm-1.75,16.624l-22.75,0l0,-14.874l22.75,0l0,14.874zm-17.375,5.625l12,0l0,-2l-12,0l0,2z" />
   <path id="screen-inner-border" fill="#FFFFFF" opacity="1" d="m28.125,3.751l-26.25,0c-0.482,0 -0.875,0.392 -0.875,0.875l0,17.499c0,0.484 0.393,0.875 0.875,0.875l26.25,0c0.482,0 0.875,-0.391 0.875,-0.875l0,-17.499c0,-0.483 -0.393,-0.875 -0.875,-0.875zm-1.75,16.624l-22.75,0l0,-14.874l22.75,0l0,14.874zm-17.375,5.625l12,0l0,-2l-12,0l0,2z" />
  </g>
  

     <g id="inner-decorations" transform="translate(2.83573,6.2) matrix(1.0576999242401937,0,0,0.5934566855552975,-3.813165698135017,-1.741602184112499) ">

    <path id="screen-writings-down" fill="#000000" opacity="1" d="m25,1l-20,0c-0.55,0 -1,0.449 -1,1l0,24c0,0.549 0.45,1 1,1l20,0c0.551,0 1,-0.451 1,-1l0,-24c0,-0.551 -0.449,-1 -1,-1zm-17,5l2,0c0.553,0 1,0.447 1,1s-0.447,1 -1,1l-2,0c-0.554,0 -1,-0.447 -1,-1s0.446,-1 1,-1zm0,4l8,0c0.553,0 1,0.447 1,1s-0.447,1 -1,1l-8,0c-0.554,0 -1,-0.447 -1,-1s0.446,-1 1,-1zm0,4l6,0c0.553,0 1,0.447 1,1s-0.447,1 -1,1l-6,0c-0.554,0 -1,-0.447 -1,-1s0.446,-1 1,-1zm2,6l-2,0c-0.554,0 -1,-0.447 -1,-1s0.446,-1 1,-1l2,0c0.553,0 1,0.447 1,1s-0.447,1 -1,1zm6,0l-2,0c-0.553,0 -1,-0.447 -1,-1s0.446,-1 1,-1l2,0c0.553,0 1,0.447 1,1s-0.447,1 -1,1zm6,0l-2,0c-0.553,0 -1,-0.447 -1,-1s0.447,-1 1,-1l2,0c0.553,0 1,0.447 1,1s-0.447,1 -1,1zm0,-4l-4,0c-0.553,0 -1,-0.447 -1,-1s0.447,-1 1,-1l4,0c0.553,0 1,0.447 1,1s-0.447,1 -1,1zm0,-4l-2,0c-0.553,0 -1,-0.447 -1,-1s0.447,-1 1,-1l2,0c0.553,0 1,0.447 1,1s-0.447,1 -1,1zm0,-4l-8,0c-0.553,0 -1,-0.447 -1,-1s0.446,-1 1,-1l8,0c0.553,0 1,0.447 1,1s-0.447,1 -1,1z"/>
	<!--     
	<path id="screen-writings" fill="#8888FF" opacity="1" d="m5,29c-1.103,0 -2,-0.897 -2,-2l0,-24c0,-1.103 0.897,-2 2,-2l20,0c1.103,0 2,0.897 2,2l0,24c0,1.103 -0.897,2 -2,2l-20,0zm2.998,-9l2.002,0l-2,0l-0.002,0zm6,0l2.002,0l-2,0l-0.002,0zm6,0l2.002,0l-2,0l-0.002,0zm-12,-4l6.002,0l-6,0l-0.002,0zm10,0l4.002,0l-4,0l-0.002,0zm-10,-4l8.002,0l-8,0l-0.002,0zm12,0l2.002,0l-2,0l-0.002,0zm-12,-4l2.002,0l-2,0l-0.002,0zm6,0l8.002,0l-8,0l-0.002,0z" />

    <path id="background" fill="#000000" opacity="0.15" d="m25,2l-20,0c-0.55,0 -1,0.449 -1,1l0,24c0,0.549 0.45,1 1,1l20,0c0.551,0 1,-0.451 1,-1l0,-24c0,-0.551 -0.449,-1 -1,-1zm-17,5l2,0c0.553,0 1,0.447 1,1s-0.447,1 -1,1l-2,0c-0.554,0 -1,-0.447 -1,-1s0.446,-1 1,-1zm0,4l8,0c0.553,0 1,0.447 1,1s-0.447,1 -1,1l-8,0c-0.554,0 -1,-0.447 -1,-1s0.446,-1 1,-1zm0,4l6,0c0.553,0 1,0.447 1,1s-0.447,1 -1,1l-6,0c-0.554,0 -1,-0.447 -1,-1s0.446,-1 1,-1zm2,6l-2,0c-0.554,0 -1,-0.447 -1,-1s0.446,-1 1,-1l2,0c0.553,0 1,0.447 1,1s-0.447,1 -1,1zm6,0l-2,0c-0.553,0 -1,-0.447 -1,-1s0.446,-1 1,-1l2,0c0.553,0 1,0.447 1,1s-0.447,1 -1,1zm6,0l-2,0c-0.553,0 -1,-0.447 -1,-1s0.447,-1 1,-1l2,0c0.553,0 1,0.447 1,1s-0.447,1 -1,1zm0,-4l-4,0c-0.553,0 -1,-0.447 -1,-1s0.447,-1 1,-1l4,0c0.553,0 1,0.447 1,1s-0.447,1 -1,1zm0,-4l-2,0c-0.553,0 -1,-0.447 -1,-1s0.447,-1 1,-1l2,0c0.553,0 1,0.447 1,1s-0.447,1 -1,1zm0,-4l-8,0c-0.553,0 -1,-0.447 -1,-1s0.446,-1 1,-1l8,0c0.553,0 1,0.447 1,1s-0.447,1 -1,1z" />
	-->
	
    <path id="screen-background" fill="#FFFFFF" opacity="1" d="m25,2l-20,0c-0.55,0 -1,0.449 -1,1l0,24c0,0.549 0.45,1 1,1l20,0c0.551,0 1,-0.451 1,-1l0,-24c0,-0.551 -0.449,-1 -1,-1zm-17,5l2,0c0.553,0 1,0.447 1,1s-0.447,1 -1,1l-2,0c-0.554,0 -1,-0.447 -1,-1s0.446,-1 1,-1zm0,4l8,0c0.553,0 1,0.447 1,1s-0.447,1 -1,1l-8,0c-0.554,0 -1,-0.447 -1,-1s0.446,-1 1,-1zm0,4l6,0c0.553,0 1,0.447 1,1s-0.447,1 -1,1l-6,0c-0.554,0 -1,-0.447 -1,-1s0.446,-1 1,-1zm2,6l-2,0c-0.554,0 -1,-0.447 -1,-1s0.446,-1 1,-1l2,0c0.553,0 1,0.447 1,1s-0.447,1 -1,1zm6,0l-2,0c-0.553,0 -1,-0.447 -1,-1s0.446,-1 1,-1l2,0c0.553,0 1,0.447 1,1s-0.447,1 -1,1zm6,0l-2,0c-0.553,0 -1,-0.447 -1,-1s0.447,-1 1,-1l2,0c0.553,0 1,0.447 1,1s-0.447,1 -1,1zm0,-4l-4,0c-0.553,0 -1,-0.447 -1,-1s0.447,-1 1,-1l4,0c0.553,0 1,0.447 1,1s-0.447,1 -1,1zm0,-4l-2,0c-0.553,0 -1,-0.447 -1,-1s0.447,-1 1,-1l2,0c0.553,0 1,0.447 1,1s-0.447,1 -1,1zm0,-4l-8,0c-0.553,0 -1,-0.447 -1,-1s0.446,-1 1,-1l8,0c0.553,0 1,0.447 1,1s-0.447,1 -1,1z" />
   
   </g>

  
 </g>
</svg>